<?xml version="1.0" encoding="UTF-8"?>
<svg id="Calque_1" xmlns="http://www.w3.org/2000/svg" version="1.1" viewBox="0 0 404 179">
  <!-- Generator: Adobe Illustrator 30.0.0, SVG Export Plug-In . SVG Version: 2.1.1 Build 123)  -->
  <defs>
    <style>
      .st0 {
        fill: #0af60c;
      }

      .st1 {
        fill: #1b1919;
      }

      .st1, .st2, .st3, .st4, .st5, .st6, .st7, .st8, .st9, .st10, .st11, .st12, .st13, .st14, .st15, .st16, .st17, .st18, .st19, .st20, .st21, .st22, .st23, .st24, .st25, .st26, .st27, .st28, .st29, .st30, .st31, .st32, .st33, .st34, .st35, .st36, .st37, .st38, .st39, .st40, .st41, .st42, .st43, .st44, .st45, .st46, .st47, .st48, .st49, .st50, .st51, .st52, .st53, .st54, .st55, .st56, .st57, .st58, .st59, .st60, .st61, .st62, .st63, .st64, .st65, .st66, .st67, .st68, .st69, .st70, .st71, .st72, .st73, .st74, .st75, .st76, .st77, .st78, .st79, .st80, .st81, .st82 {
        isolation: isolate;
      }

      .st1, .st63 {
        opacity: .7;
      }

      .st2 {
        fill: #569e55;
      }

      .st2, .st5 {
        opacity: .9;
      }

      .st3 {
        fill: #058c07;
        opacity: .8;
      }

      .st83 {
        fill: #d00000;
      }

      .st4 {
        fill: #3bc33c;
      }

      .st4, .st8, .st34, .st54 {
        opacity: 1;
      }

      .st5 {
        fill: #36b33c;
      }

      .st6 {
        fill: #0b0f0a;
        opacity: .3;
      }

      .st7 {
        fill: #045106;
        opacity: .7;
      }

      .st8 {
        fill: #a1181e;
      }

      .st84 {
        fill: #47ae52;
      }

      .st85 {
        fill: #18100e;
      }

      .st86 {
        fill: #38d73f;
      }

      .st87 {
        fill: #55be5f;
      }

      .st9 {
        fill: #005f00;
      }

      .st9, .st35 {
        opacity: .7;
      }

      .st88 {
        fill: #1fe322;
      }

      .st10 {
        fill: #2f7f32;
      }

      .st10, .st65 {
        opacity: .7;
      }

      .st89 {
        fill: #1d181c;
      }

      .st11 {
        fill: #830d10;
      }

      .st11, .st71 {
        opacity: .9;
      }

      .st90 {
        fill: #783c06;
      }

      .st12 {
        fill: #991616;
      }

      .st12, .st38, .st60, .st74 {
        opacity: 1;
      }

      .st13 {
        fill: #035303;
      }

      .st13, .st47 {
        opacity: .6;
      }

      .st14 {
        fill: #1f9c22;
      }

      .st14, .st26 {
        opacity: .9;
      }

      .st15 {
        fill: #2b7d32;
      }

      .st15, .st79 {
        opacity: .7;
      }

      .st91 {
        fill: #2ed930;
      }

      .st92 {
        fill: #05f906;
      }

      .st93, .st48, .st72, .st80 {
        fill: #fff;
      }

      .st16 {
        fill: #338838;
        opacity: .8;
      }

      .st17 {
        fill: #133f16;
        opacity: .3;
      }

      .st18 {
        fill: #1a591e;
      }

      .st18, .st53 {
        opacity: .6;
      }

      .st19 {
        fill: #428140;
      }

      .st19, .st33, .st37 {
        opacity: .8;
      }

      .st20 {
        fill: #1fc924;
      }

      .st20, .st59, .st72, .st73 {
        opacity: .9;
      }

      .st21 {
        fill: #3d5b3c;
      }

      .st21, .st45, .st48, .st68 {
        opacity: .8;
      }

      .st22 {
        fill: #0f0404;
        opacity: .2;
      }

      .st94 {
        fill: #773c06;
      }

      .st23 {
        fill: #416b3f;
        opacity: .8;
      }

      .st24 {
        fill: #65ba62;
      }

      .st24, .st29, .st55, .st69 {
        opacity: 1;
      }

      .st25 {
        fill: #004501;
      }

      .st25, .st41, .st66 {
        opacity: .8;
      }

      .st26 {
        fill: #811213;
      }

      .st27 {
        fill: #034304;
        opacity: .5;
      }

      .st95 {
        fill: #763b06;
      }

      .st28 {
        fill: #528751;
      }

      .st28, .st77 {
        opacity: .9;
      }

      .st29 {
        fill: #a70c0e;
      }

      .st30 {
        fill: #0e1a10;
        opacity: .3;
      }

      .st31 {
        fill: #020702;
        opacity: 0;
      }

      .st32 {
        fill: #1a2919;
        opacity: .4;
      }

      .st33 {
        fill: #1a481b;
      }

      .st34 {
        fill: #901b1b;
      }

      .st35 {
        fill: #115a19;
      }

      .st36 {
        fill: #9b0f12;
      }

      .st36, .st46 {
        opacity: .9;
      }

      .st37 {
        fill: #269928;
      }

      .st96 {
        fill: #ce0000;
      }

      .st38 {
        fill: #4fb84a;
      }

      .st39 {
        fill: #074b09;
        opacity: .5;
      }

      .st40 {
        fill: #2a4c2a;
        opacity: .6;
      }

      .st97 {
        fill: #9e1514;
      }

      .st41 {
        fill: #2c7d2f;
      }

      .st42 {
        fill: #5e2024;
      }

      .st42, .st52 {
        opacity: .8;
      }

      .st43 {
        fill: #890e0e;
      }

      .st43, .st44, .st80 {
        opacity: .9;
      }

      .st44 {
        fill: #7e181c;
      }

      .st98 {
        fill: #763c06;
      }

      .st99 {
        fill: #783b05;
      }

      .st45 {
        fill: #107c16;
      }

      .st46 {
        fill: #2fa632;
      }

      .st100 {
        fill: #773c05;
      }

      .st47 {
        fill: #075808;
      }

      .st49 {
        fill: #861315;
      }

      .st49, .st58, .st81 {
        opacity: .9;
      }

      .st50 {
        fill: #022903;
        opacity: .3;
      }

      .st51 {
        fill: #0a370f;
        opacity: .7;
      }

      .st52 {
        fill: #308b35;
      }

      .st53 {
        fill: #134c16;
      }

      .st54 {
        fill: #30b732;
      }

      .st55 {
        fill: #8b2925;
      }

      .st56 {
        fill: #0d8b0d;
      }

      .st56, .st78 {
        opacity: .8;
      }

      .st57 {
        fill: #034705;
        opacity: .6;
      }

      .st58 {
        fill: #871617;
      }

      .st59 {
        fill: #841c1b;
      }

      .st101 {
        fill: #773b07;
      }

      .st102 {
        fill: #901d20;
      }

      .st103 {
        fill: #04fd04;
      }

      .st60 {
        fill: #9e1112;
      }

      .st61 {
        fill: #260808;
        opacity: .6;
      }

      .st104 {
        fill: #773b06;
      }

      .st105 {
        fill: #53b550;
      }

      .st62 {
        fill: #690c0a;
        opacity: .8;
      }

      .st63 {
        fill: #013801;
      }

      .st64 {
        fill: #020e02;
        opacity: .1;
      }

      .st106 {
        fill: #171719;
      }

      .st65 {
        fill: #1f591f;
      }

      .st66 {
        fill: #357e38;
      }

      .st67 {
        fill: #7f0d0d;
      }

      .st67, .st70 {
        opacity: .9;
      }

      .st68 {
        fill: #002f00;
      }

      .st69 {
        fill: #a01717;
      }

      .st70 {
        fill: #459d47;
      }

      .st71 {
        fill: #301514;
      }

      .st73 {
        fill: #8e1717;
      }

      .st74 {
        fill: #981417;
      }

      .st75 {
        fill: #08350a;
      }

      .st75, .st82 {
        opacity: .6;
      }

      .st76 {
        fill: #890d0e;
        opacity: .9;
      }

      .st77 {
        fill: #219f23;
      }

      .st78 {
        fill: #146714;
      }

      .st79 {
        fill: #094609;
      }

      .st81 {
        fill: #8a0c0c;
      }

      .st82 {
        fill: #153814;
      }
    </style>
  </defs>
  <g id="_x23_171719ff">
    <path class="st106" d="M225.2,19.1c24.4-8.7,50.9-14.4,76.6-9,1.6.5,4.1.7,4.5,2.8.7,3.8-4.2,3.6-6.6,4.9-4.7,1.3-6.7,6-9.2,9.7-2.1,3.5-4.8,6.7-6.5,10.5,1.3,2.2,2.9,4.5,5,6,6.1-1.8,11.4-5.7,16.4-9.7,1.8-1.9,4.7.4,4.1,2.7-1.4,3.2-4,5.6-6.2,8.3-6.1,6.4-12.9,12.3-20.5,16.9-1.4,1.1-3.1.2-3.9-1.1-2-2.2-3.7-4.6-5.5-6.9-2.3,3.1-4.4,6.3-6.4,9.6,2,1,2.9,2.8,2.8,5,5.5-1.7,10.9-3.6,16.4-5.1,2-1,4.3,1.1,3.7,3.2-.2,2.1-2.5,2.5-4,3.3-17.4,7-35.2,13.5-53.7,16.4-9.7,1.1-20.2,2-29.3-2.3-7.2-3.3-12.2-11.2-11.6-19.2.3-7.5,4.5-14.3,10-19.2-2.3-.9-6-.6-6.5-3.8.6-3,4-3.1,6.3-4,4.7-1.1,9.1-3.1,13.9-3.8,4,3,7.1,7.1,10.9,10.4,2.4-3.1,4.8-6.2,7.2-9.3-2.7-.3-6-3-3.3-5.7,5.2-2.5,11.3-2.7,16.3-5.7,4.3-2.5,9.4-3.1,14.1-4.8-12,.2-23.6,3.4-35.2,6.1-1.8.7-3.7-1.7-3-3.4,0-1.8,1.9-2.2,3.3-2.8M268.5,10.7c-14.2,1.6-28,5.4-41.5,10.1-1.4.4-2.6,1.3-3.6,2.4,4.6-.6,9.1-2.1,13.6-3,5.3-1.3,10.8-1.8,16.2-3,.6,0,1.1,0,1.7.1,9-1.1,18.2-1.3,27.1.9-2.2,3.7-4.4,7.4-7.2,10.7-2.6-1-3.9-4.2-5.8-6.1,1.4-1.7,2.9-3.3,4.3-4.9-5.8,1-11.3,3.1-16.9,4.7-3,.9-6.1,1.5-8.7,3.2-5.2,3.2-11.7,3.2-17,6.3,1.5,1,5.1.8,5.2,2.9-2.9,4.5-6.8,8.4-10,12.7-4-3.6-7.3-8.2-11.8-11.1-5.9,1.7-12,2.9-17.5,5.7,2.8.6,5.8,1.3,7.3,4-4.5,3.9-8.6,8.6-10.1,14.6-2.5,7.4.8,15.9,7.2,20.1,7.1,4.6,15.8,4.7,23.9,4.3,13.1-1.1,25.8-4.8,38.1-9,1.7-.6,3.5-1,5.2-1.2-.6-.5-1.1-.9-1.7-1.4-1.8.7-3.5,1.4-5.3,2.1-.5-.2-1.4-.7-1.8-.9,3.4-.8,6.8-1.7,10.1-2.8-.4.8-.7,1.7-1,2.5,5.2-2.2,10.5-4,15.6-6.1,1.6-.5,2.9-1.5,3.9-2.8-5.2.9-10.1,3.1-15.2,4.4-5.4,1.6-10.9,2.8-16.3,4.4,0,.1-.2.4-.3.6h.7c-.5.2-1.5.5-2,.7-.9-1-2.2-1.5-3.5-1.9.4-.2,1.3-.6,1.8-.8,5.4-.4,9.9-3.7,14.7-6-1.6-.3-3.2-.7-4.9-.9,3-5.2,6.2-10.3,9.8-15.1,3.2,2.6,5,6.5,8.1,9.2,2.7-.5,4.7-2.5,6.9-4,7.5-5.7,14.8-12.2,19.9-20.2-6.3,4.1-12.4,8.8-19.7,11.1-2.4-2.9-4.9-5.7-6.9-8.8,3.4-6,7.6-11.6,11.3-17.5,2.5-4.4,7.9-4.9,12-7.2-5.1-1.2-10.7-3.7-15.8-1.9l1.1.2c-5,0-10,0-15.1-.1,4.3-.7,8.9.6,12.9-.9l.3-.4c-6.5-1.1-13.1-.3-19.6.4M275.5,19.2c-1.4,1.2-2.8,2.5-4.2,3.7,1.1,1.1,2.2,2.2,3.3,3.3,1.4-2.1,2.8-4.2,4.1-6.4-1.1-.2-2.1-.4-3.2-.6Z"/>
  </g>
  <g id="_x23_0f040427">
    <path class="st22" d="M268.5,10.7c6.5-.7,13.1-1.5,19.6-.4l-.3.4c-4.1,1.4-8.7.2-12.9.9-1.1,0-2.3.1-3.4.2-6.1.3-12.1,1.4-18.1,2.6-1.7.3-3.3.7-4.9,1.1-2.8.6-5.5,1.4-8.1,2.5,2.3-.1,4.6-.4,6.8-.9,2-.1,4.1,0,6.1,0-5.3,1.2-10.8,1.7-16.2,3-4.6.9-9,2.4-13.6,3,1-1.1,2.1-2,3.6-2.4,13.4-4.7,27.3-8.5,41.5-10.1Z"/>
    <path class="st22" d="M259.2,15.8c3.6-.3,7.2-.6,10.9-.5h1.5c3.2.5,6.5.9,9.8,1.4.9.3,1.7.7,2.6,1.1-3,4.8-6,9.5-9.2,14.1-2.5-2.9-5.6-5.5-6.7-9.3,0-.4-.2-1.1-.2-1.5-1.2-.6-2.5.1-3.7.5-2.5.9-5.1,1.7-7.7,2.3-1.3.3-2.6.7-3.5,1.7.9.5,1.7,1,2.6,1.5,4.3,4.4,7.5,9.8,11.9,14.1-.7,1.2-1,2.7-1.3,4-1.3,1.8-2.5,3.6-3.7,5.4-1,.9-1.7,2.1-2,3.4-4.2,6-8.1,12.3-12.2,18.4-.8,1.2-1.5,2.4-2.3,3.7,1.9-.7,3.8-1.5,5.6-2.3,1.3.5,2.6.9,3.5,1.9-11.1,3-22.7,3.6-34.1,2.6-2.7-1.1-5.5-2-8-3.6-2.7-1.7-4.4-4.6-5.8-7.4-.7-4.6.3-9.2,2-13.5.6-.8,1.2-1.5,1.8-2.2,2,1.8,4,3.6,5.8,5.6.8,1.2,1.7,2.3,2.9,3.1.8.7,1.6,1.3,2.4,2,.2.4.6,1.1.8,1.4.3-.3.8-.8,1.1-1.1.3-.5.8-1.5,1.1-1.9.8,0,1.6,0,2.4,0-1.4,1.6-2.8,3.2-4.2,4.8-4.1-3.5-7.5-7.8-11.7-11.1-1.4-.1-1.6,1.5-2.1,2.5-1.6,3.9-2.1,8.7.1,12.5,2.2,4,6.6,6.3,11,7.3,7.7,1.9,15.6,1.1,23.4,0,1.7-2.5,3.3-5,4.8-7.6-6.1,1.6-12.1,3.7-18.2,5,2-2.4,4.4-4.5,5.8-7.4,1.7-5.7.4-11.6.7-17.4-.9,0-1.8.1-2.7.2,1.1-1.3,2.3-2.5,3.4-3.8l.2,1c-.7,8.4,1.7,17.6-3,25.2,4.5-1.5,9.2-2.5,13.6-4.2.5-1.4.5-3,.6-4.4.4-12,.7-24,.9-36-1.6.5-3.1.9-4.6,1.4-2.2.6-4.3,1.2-6.5,1.9-1.3.4-2.6.7-4,1.1.7,1.4,1.5,2.7,2.2,4.2-.7,1.1-1.4,2.1-2.1,3.2-1.3.3-2.1,1.1-2.3,2.5-2.3,2.8-4.6,5.6-6.9,8.4-2.9-2.9-5.7-5.9-8.7-8.8-1.7-2-3.8-3.9-6.5-2.3-1.4.4-2.8.9-4.2,1.3-1.9.6-3.8,1.1-5.7,1.7,1.2,1.2,2.5,2.3,3.7,3.5.3.3,1,1,1.4,1.3-1.7,1.4-3.4,2.8-5,4.3-1.3.4-2,1.3-2.2,2.6-1.1,1.9-2.2,3.8-3.1,5.9-1.7,4.3-2,9.3,0,13.6.3.6.7,1.2,1.1,1.8,4,7,12.6,9.2,20.1,9.5,15.2.4,30.2-3.6,44.5-8.4,1.8-.6,3.6-1.3,5.3-2.1.6.5,1.1.9,1.7,1.4-1.8.3-3.5.7-5.2,1.2-12.4,4.1-25.1,7.8-38.1,9-8.1.4-16.9.3-23.9-4.3-6.4-4.2-9.8-12.7-7.2-20.1,1.4-6,5.6-10.7,10.1-14.6-1.5-2.7-4.5-3.4-7.3-4,5.5-2.8,11.6-3.9,17.5-5.7,4.5,3,7.7,7.6,11.8,11.1,3.3-4.3,7.1-8.1,10-12.7-.2-2.1-3.7-1.9-5.2-2.9,5.3-3.1,11.8-3.1,17-6.3,2.7-1.6,5.8-2.2,8.7-3.2,5.6-1.6,11.1-3.6,16.9-4.7-1.4,1.7-2.9,3.3-4.3,4.9,2,1.9,3.2,5.1,5.8,6.1,2.8-3.3,4.9-7.1,7.2-10.7-8.9-2.2-18.1-2-27.1-.9-.7-.2-2-.6-2.7-.8,2.3-.3,4.7-.6,7.1-.8M250.9,33c.1,11.1-.5,22.2-.5,33.2,4.2-5.5,7.7-11.5,11.6-17.2,1.4-2.2,3.2-4.4,4-6.9-2.5-3.8-5.6-7.1-8.3-10.7-1.6-2.2-3.7-3.8-6-5.2-.5,2.2-.8,4.5-.8,6.8Z"/>
    <path class="st22" d="M273,69.9c5.1-1.3,10-3.5,15.2-4.4-1.1,1.3-2.4,2.2-3.9,2.8-5.2,2.1-10.5,4-15.6,6.1.3-.8.7-1.7,1-2.5-3.3,1.1-6.7,2-10.1,2.8-.6,0-1.9.2-2.5.3h-.7c0-.2.2-.5.3-.7,5.4-1.6,10.9-2.8,16.3-4.4Z"/>
    <path class="st22" d="M235,75.4c3-1.3,6.1-2.3,9.3-3.1-1.5,3.7-6.1,2.5-9.3,3.1Z"/>
    <path class="st22" d="M110,155.2c.5,0,1.4-.2,1.8-.2-.6,2.6-1.1,5.2-1.1,7.9-.6.6-1.2,1.2-1.9,1.9-.5.3-1.6,1-2.1,1.3,1.2.7,2.1.5,2.7-.7.4.4,1.1,1.3,1.5,1.7-1.4.2-2.8.6-4.1,1.2-.7-1.6-.9-3.3-.8-5,1.6.2,3.9-1,2.9-2.9l.4-.5c.3-.2,1-.6,1.4-.8-.2-1-.6-2.9-.8-3.9Z"/>
  </g>
  <g id="_x23_981417f5">
    <path class="st74" d="M253.3,14.4c6-1.1,12-2.3,18.1-2.6-1.1.5-2.1.9-3.2,1.4.6.7,1.2,1.4,1.9,2-3.6,0-7.3.2-10.9.5-2-.4-4-.8-5.9-1.4Z"/>
  </g>
  <g id="_x23_ce0000ff">
    <path class="st96" d="M271.4,11.8c1.1,0,2.3-.2,3.4-.2,5,0,10,.1,15.1.1h1c1.7.8,3.4,1.6,5.1,2.3-.7,1.1-1.4,2.1-2.2,3.2-5,6.7-9.3,14-13.9,20.9,2.7,3.3,5,7,8.2,9.8,2.1-.4,3.9-1.3,5.8-2.3.8.4,2.2,1.2,3,1.7-4,3.7-8.4,7-12.8,10.3-1.5-.9-3.2-1.3-4.9-1.4-1.9-2.6-3.9-5.1-6-7.6-.8,1-1.5,2-2.3,3.1-3.3,2-5.3,5.2-5.8,8.9-1,1.8-2.1,3.5-3,5.3-.6,1.1-.9,2.3-1.1,3.5-2.2.9-4.4,1.9-6.5,2.9-2,0-4,0-6-.1,4.1-6.1,8-12.4,12.2-18.4,1.7,0,3.2-1.8,2-3.4,1.2-1.8,2.4-3.6,3.7-5.4,1.9-.4,3.3-2.7,1.3-4-4.4-4.4-7.6-9.7-11.9-14.1.5-1,.8-2.1.9-3.2,2.6-.6,5.2-1.4,7.7-2.3,1.1.8,2.5,1.5,3.9.9,1,3.8,4.2,6.4,6.7,9.3,3.2-4.6,6.2-9.3,9.2-14.1-.9-.4-1.7-.7-2.6-1.1-3-1.7-6.4-1.7-9.8-1.4h-1.5c-.6-.7-1.2-1.4-1.9-2,1.1-.5,2.1-1,3.2-1.4Z"/>
  </g>
  <g id="_x23_8e1717ed">
    <path class="st73" d="M290.8,11.8c3.5.2,6.9.7,10.4,1.4-2.4,1.4-5,2.7-7.5,4,.7-1.1,1.5-2.1,2.2-3.2-1.7-.8-3.4-1.5-5.1-2.2Z"/>
  </g>
  <g id="_x23_5e2024d6">
    <path class="st42" d="M248.4,15.5c1.6-.4,3.3-.8,4.9-1.1,1.9.5,3.9,1,5.9,1.4-2.4.2-4.7.5-7.1.8.7.2,2,.6,2.7.8-.6,0-1.1,0-1.7-.1-2-.2-4.1-.2-6.1,0l1.3-1.7Z"/>
  </g>
  <g id="_x23_890d0edd">
    <path class="st76" d="M271.6,15.3c3.3-.3,6.8-.3,9.8,1.4-3.3-.4-6.5-.9-9.8-1.4Z"/>
  </g>
  <g id="_x23_1b1919b3">
    <path class="st1" d="M240.3,18c2.6-1.2,5.3-1.9,8.1-2.5l-1.3,1.7c-2.2.5-4.5.8-6.8.9Z"/>
  </g>
  <g id="_x23_811213e1">
    <path class="st26" d="M264.2,21.5c1.1-.4,2.4-1.2,3.7-.5,0,.4.2,1.1.2,1.5-1.4.5-2.8-.2-3.9-.9Z"/>
  </g>
  <g id="_x23_901d20fb">
    <path class="st102" d="M252.9,25.5c.9-1,2.2-1.4,3.5-1.7-.2,1.1-.5,2.2-.9,3.2-.9-.5-1.8-1-2.6-1.5Z"/>
  </g>
  <g id="_x23_18100eff">
    <path class="st85" d="M250.9,33c0-2.3.3-4.5.8-6.8,2.3,1.3,4.4,3,6,5.2,2.7,3.6,5.9,6.9,8.3,10.7-.9,2.5-2.6,4.7-4,6.9-3.9,5.7-7.4,11.7-11.6,17.2,0-11.1.6-22.1.5-33.2M253.4,29.4c-.5,10-.7,20-.9,30.1,4-5.5,7.8-11.2,11.2-17.2-3.3-4.4-6.8-8.7-10.3-12.9Z"/>
  </g>
  <g id="_x23_9b0f12eb">
    <path class="st36" d="M245.5,28.4c1.6-.5,3.1-.9,4.6-1.4-.2,12-.5,24-.9,36,0,1.5,0,3-.6,4.4-4.4,1.8-9.1,2.7-13.6,4.2,4.7-7.6,2.3-16.8,3-25.2,2.2,7.4,0,15.1.4,22.7,3-.8,6.2-1.3,9-2.7,1.6-5.3.7-11,.8-16.4-.3-7.1,1.4-14.1,1.1-21.2-1-.1-2.9-.3-3.8-.4Z"/>
  </g>
  <g id="_x23_d00000ff">
    <path class="st83" d="M239.1,30.3c2.2-.6,4.3-1.3,6.5-1.9,1,.1,2.9.3,3.8.4.3,7.1-1.4,14.1-1.1,21.2-.2,5.5.8,11.1-.8,16.4-2.8,1.4-6,2-9,2.7-.4-7.6,1.9-15.3-.4-22.7l-.2-1c-1.2,1.2-2.3,2.5-3.4,3.8-2.7,3-5.1,6.2-7.4,9.5-.8.4-1.4,1-1.9,1.8-.3.5-.8,1.5-1.1,1.9-.5,0-1.4-.2-1.8-.3-.8-.7-1.6-1.3-2.4-2,.9-1.9-1-3.9-2.9-3.1-1.8-2-3.8-3.8-5.8-5.6-.6.7-1.2,1.5-1.8,2.2-3.6,3.4-4.7,9.2-2,13.5,1.4,2.8,3.1,5.7,5.8,7.4,2.5,1.6,5.3,2.5,8,3.6,4.7,2.6,10.4,1,15.5,2.1-9.9,3.2-21,3.8-30.9,0-3.2-1.6-6-3.8-8.8-5.8-.4-.6-.8-1.2-1.1-1.8.8-4.5.8-9.1,0-13.6.9-2,2-4,3.1-5.9,1.5-.2,2.3-1,2.2-2.6,1.6-1.5,3.3-2.9,5-4.3-.3-.3-1-1-1.4-1.3.6-1.7,1.3-3.5,2-5.2,1.4-.4,2.8-.9,4.2-1.3,2.2.7,4.3,1.5,6.5,2.3,2.9,2.9,5.8,5.8,8.7,8.8,2.3-2.8,4.6-5.6,6.9-8.4,1.5-.2,2.2-1,2.3-2.5.7-1.1,1.4-2.1,2.1-3.2.7-1.7,1.3-3.5,1.8-5.3Z"/>
  </g>
  <g id="_x23_a1181ef8">
    <path class="st8" d="M235.1,31.4c1.3-.4,2.6-.7,4-1.1-.6,1.8-1.1,3.6-1.8,5.3-.7-1.4-1.4-2.8-2.2-4.2Z"/>
  </g>
  <g id="_x23_7f0d0de2">
    <path class="st67" d="M210.8,38.6c2.7-1.6,4.8.3,6.5,2.3-2.1-.9-4.3-1.6-6.5-2.3Z"/>
  </g>
  <g id="_x23_8a0c0ce6">
    <path class="st81" d="M232.9,41.3c.2-1.4.9-2.2,2.3-2.5,0,1.5-.8,2.3-2.3,2.5Z"/>
  </g>
  <g id="_x23_901b1bf7">
    <path class="st34" d="M201,41.6c1.9-.6,3.8-1.1,5.7-1.7-.7,1.7-1.3,3.5-2,5.2-1.2-1.2-2.5-2.3-3.7-3.5Z"/>
  </g>
  <g id="_x23_690c0ac1">
    <path class="st62" d="M267.5,41.1c2,1.3.6,3.6-1.3,4,.3-1.4.5-2.8,1.3-4Z"/>
  </g>
  <g id="_x23_301514dc">
    <path class="st71" d="M300.8,42.2l.2-.3.4.2-.2.3-.4-.2Z"/>
  </g>
  <g id="_x23_7e181ce8">
    <path class="st44" d="M293.8,45.7c2.4-1.3,4.8-2.5,7.4-3.3-1.4,1.8-2.8,3.5-4.4,5-.8-.4-2.2-1.2-3-1.7Z"/>
  </g>
  <g id="_x23_2608088d">
    <path class="st61" d="M227,58.8c2.3-3.3,4.8-6.5,7.4-9.5.9,0,1.8-.2,2.7-.2-.3,5.8,1,11.8-.7,17.4,0-5.4,0-10.8-.2-16.2-2.6,2.6-5,5.4-6.9,8.6-.6,0-1.7-.1-2.3-.2Z"/>
  </g>
  <g id="_x23_830d10db">
    <path class="st11" d="M198.8,53.3c.2-1.3,1-2.2,2.2-2.6,0,1.6-.7,2.4-2.2,2.6Z"/>
  </g>
  <g id="_x23_1d181cff">
    <path class="st89" d="M229.3,58.9c1.9-3.2,4.3-6,6.9-8.6.2,5.4.1,10.8.2,16.2-1.3,2.9-3.8,5-5.8,7.4,6.1-1.4,12.1-3.4,18.2-5-1.5,2.6-3.1,5.1-4.8,7.6-7.7,1-15.7,1.8-23.4,0-4.3-1-8.8-3.2-11-7.3-2.2-3.8-1.7-8.6-.1-12.5.5-1,.7-2.6,2.1-2.5,4.2,3.4,7.6,7.6,11.7,11.1,1.4-1.6,2.8-3.2,4.2-4.8-.8,0-1.6,0-2.4,0,.4-.8,1.1-1.4,1.9-1.8.6,0,1.7.1,2.3.2M224.7,66.7c-.4.2-1.3.5-1.8.7-4.3-3.1-7.4-7.5-11.5-10.7-1.4,4.1-2.2,9.3,1,12.8,4.2,4.9,11.1,5.3,17,6-1.3-4.2,3.1-6.1,4.8-9.2.8-3.8.4-7.8.5-11.7-3.6,3.8-6.4,8.3-10,12.1M235,75.4c3.2-.5,7.8.7,9.3-3.1-3.2.7-6.3,1.8-9.3,3.1Z"/>
  </g>
  <g id="_x23_a01717f9">
    <path class="st69" d="M260.5,53.9c.3-1.3,1-2.5,2-3.4,1.2,1.6-.3,3.3-2,3.4Z"/>
  </g>
  <g id="_x23_9e1112f5">
    <path class="st60" d="M264.9,60.7c.6-3.7,2.6-7,5.8-8.9-1.7,3.1-3.7,6.1-5.8,8.9Z"/>
  </g>
  <g id="_x23_a70c0efa">
    <path class="st29" d="M207.3,67.2c-2.7-4.3-1.6-10.1,2-13.5-1.8,4.3-2.7,8.9-2,13.5Z"/>
  </g>
  <g id="_x23_861315e6">
    <path class="st49" d="M279,56.3c1.7,0,3.4.5,4.9,1.4-1.7,2.3-4.1.8-4.9-1.4Z"/>
  </g>
  <g id="_x23_890e0ee8">
    <path class="st43" d="M216.9,57.1c2-.8,3.8,1.2,2.9,3.1-1.2-.8-2.1-1.9-2.9-3.1Z"/>
  </g>
  <g id="_x23_9e1514fe">
    <path class="st97" d="M195.7,72.7c-2-4.3-1.7-9.2,0-13.6.8,4.5.8,9.1,0,13.6Z"/>
  </g>
  <g id="_x23_8b2925f9">
    <path class="st55" d="M222.2,62.1c.4,0,1.4.2,1.8.3-.3.3-.8.8-1.1,1.1-.2-.4-.6-1.1-.8-1.4Z"/>
  </g>
  <g id="_x23_841c1bed">
    <path class="st59" d="M261.9,66c.6.3,1.7.9,2.2,1.2-.6,1.3-2.1,1.8-3.3,2.3.2-1.2.5-2.4,1.1-3.5Z"/>
  </g>
  <g id="_x23_871617e5">
    <path class="st58" d="M246,76c.7-1.2,1.5-2.5,2.3-3.7,2,0,4,.2,6,.1l-.9.4c-.4.2-1.3.6-1.8.8-1.8.8-3.7,1.6-5.6,2.3Z"/>
  </g>
  <g id="_x23_0758089b">
    <path class="st47" d="M95.1,74.8c1.4-2.5,3.4.6,5,1.2,2.2,0,4.3-.7,6.4-1.2v.4c-.7,1.7-1.3,3.4-1.8,5.2,0-1.3-.1-2.5-.2-3.8-2.8.2-5.6-.6-8.3-1.4-.4,1.4,0,2.8.2,4.2.1.7.4,2.1.5,2.8,0,.5.3,1.4.4,1.9-2.4-2.5-2-6.2-2.2-9.4Z"/>
  </g>
  <g id="_x23_1fe322fe">
    <path class="st88" d="M96.2,75.3c2.7.8,5.5,1.5,8.3,1.4-.7,1.3-1.3,2.6-2,3.9l-.7-.2c-1.8-.5-3.6-.6-5.4-.9-.2-1.4-.6-2.8-.2-4.2Z"/>
  </g>
  <g id="_x23_991616f4">
    <path class="st12" d="M196.8,74.6c2.9,2.1,5.6,4.3,8.8,5.8,9.9,3.8,20.9,3.2,30.9,0-5.1-1.2-10.7.5-15.5-2.1,11.4.9,23,.4,34.1-2.6.5-.2,1.5-.4,2-.6.6,0,1.9-.2,2.5-.3.5.2,1.4.7,1.8.9-14.3,4.8-29.3,8.8-44.5,8.4-7.5-.2-16.1-2.5-20.1-9.5Z"/>
  </g>
  <g id="_x23_0af60cff">
    <path class="st0" d="M104.8,80.4c.5-1.7,1.1-3.5,1.7-5.2.9,1,1.7,2,2.4,3.1.3,1,1,1.7,2,1.9,1.3.2,1.9.9,1.9,2.2,0,1.2,0,2.5.9,3.4l.7,1c-.8,1.8-1.5,3.6-2.7,5.1h-.7s-.6-.4-.6-.4c-.2-2.1.2-4.4-.7-6.3l-.6-.7-.5-.6c-1.3-.6-2.6-1.2-3.9-1.7,0-.4.2-1.3.3-1.8Z"/>
    <path class="st0" d="M103,92.8c1.3-.9,3.4,0,4.4,1.1-1.3,1.8-3.5.3-4.4-1.1Z"/>
  </g>
  <g id="_x23_04fd04ff">
    <path class="st103" d="M88.4,79.4c1.7-1.2,3.4-2.4,5.1-3.5-.7,2.8-1.1,5.6-1.3,8.5.4.4,1.3,1.2,1.7,1.6.8.7,1.4,1.4,2.1,2.2.5.2,1.4.6,1.9.8l1.6-.4v1c-.1.7-.2,2-.3,2.6l-.3,1.3c-.4.2-1.3.5-1.7.7-1.4,0-2.7.1-4.1.2-.9-1.4-1.8-2.9-2.6-4.3-.3-1-.7-1.9-1-2.9-.6,0-1.8-.2-2.4-.2-.2.5-.7,1.6-.9,2.1-.9,2.2-2.2,4.3-3.2,6.5h-.5c0-.1-.5-.2-.5-.2l-.7-.2c-.5-5.9,1.9-12.4,7-15.7Z"/>
    <path class="st103" d="M93.8,106.5c1.7-.4,3.4-.9,5.1-1.2.2.4.6,1.2.8,1.5,1.9,3.5,2.6,7.7.6,11.3-.8.9-1.6,1.7-2.4,2.6l-.8-2c-.4.5-1.3,1.6-1.7,2.1-.2-.3-.6-.9-.8-1.2-.3.1-.9.4-1.1.5l-1,.6c-.3-1.5-.7-3-1-4.5,2.4-2.6,1.5-6.5,2.3-9.8Z"/>
  </g>
  <g id="_x23_058c07c8">
    <path class="st3" d="M93.6,75.9c.8,3.4-1.3,6.8.4,10.1-.4-.4-1.3-1.2-1.7-1.6.2-2.9.7-5.7,1.3-8.5Z"/>
  </g>
  <g id="_x23_0d8b0dd3">
    <path class="st56" d="M108.8,78.4c1.7-.4,2.4.2,2,1.9-1-.2-1.7-.8-2-1.9Z"/>
  </g>
  <g id="_x23_02290352">
    <path class="st50" d="M96.4,79.5c1.8.3,3.7.4,5.4.9-.5,2-2.3,2.1-4,1.9h-.9c-.1-.7-.4-2.1-.5-2.8Z"/>
  </g>
  <g id="_x23_2ed930ff">
    <path class="st91" d="M96.9,82.3h.9c1.7.1,3.4.2,5.1.3-.5.7-1.5,2.2-2,3l-.4.6c-.6,0-1.9.1-2.6.2-.2-.5-.6-1.6-.7-2.1,0-.5-.3-1.4-.4-1.9Z"/>
  </g>
  <g id="_x23_0347059a">
    <path class="st57" d="M112.7,82.4c1.8-.4,2.2,2.7.9,3.4-.8-.9-.9-2.2-.9-3.4Z"/>
  </g>
  <g id="_x23_004501c0">
    <path class="st25" d="M109.5,85.3c1,1.9.5,4.2.7,6.3h-.4c-1.7-1.4-1.3-4.5-.3-6.3Z"/>
  </g>
  <g id="_x23_013801b2">
    <path class="st63" d="M98,86.2c.6,0,1.9-.1,2.6-.2.6,1.6-2.8,1.8-2.6.2Z"/>
  </g>
  <g id="_x23_0343047d">
    <path class="st27" d="M87.1,86.8c.6,0,1.8.2,2.4.2.3,1,.6,1.9,1,2.9.1,1.8.2,3.6.2,5.4.8,0,2.6,0,3.4,0-1.3.2-2.6.4-3.9.6-.3-2.9-.6-5.8-1.2-8.7-.9.6-1.9,1.2-2.8,1.8.2-.5.7-1.6.9-2.1Z"/>
  </g>
  <g id="_x23_005f00ab">
    <path class="st9" d="M96,88.2l.7-.5c.3.3.9.9,1.2,1.2-.5-.2-1.4-.6-1.9-.8Z"/>
  </g>
  <g id="_x23_1fc924ed">
    <path class="st20" d="M90.5,90c.8,1.4,1.7,2.9,2.6,4.3,1.4,0,2.7,0,4.1-.2-1,.4-2,.8-3.1,1.2-.8,0-2.6,0-3.4,0,0-1.8,0-3.6-.2-5.4Z"/>
  </g>
  <g id="_x23_30b732f7">
    <path class="st54" d="M99.4,89.6c.5.4,1.6,1.3,2.1,1.8,0,0,0,0,.1.1l1.3,1.3c1,1.4,3.1,2.8,4.4,1.1.6-.5,1.8-1.6,2.4-2.2h.4c0,0,.6.4.6.4,0,.7,0,2-.1,2.7l-.8.3c-2.5.4-2.8,3.1-3.5,5.1,1,.7,2,1.3,3,2-.9,0-2.6-.2-3.4-.3-.2-.8-.4-1.5-.6-2.3-1.4-1.9-.1-3.2,1.5-4.2-3,.4-5.4-1.6-7.7-3.2,0-.7.2-2,.2-2.6Z"/>
  </g>
  <g id="_x23_002f00ce">
    <path class="st68" d="M101.6,91.3s0,0,.1.1c0,0,0,0-.1-.1Z"/>
  </g>
  <g id="_x23_094609b4">
    <path class="st79" d="M113,90.8l1.2.4c0,1.2,0,2.5,0,3.8l-.3,1.1c-.3.3-.8,1-1.1,1.3-.7,1.2-1.2,2.5-1.8,3.9-.2-.2-.5-.7-.6-1-.2-1.7-.3-3.5-.5-5.2l.8-.3c.6,0,1.7,0,2.2,0v-3.9Z"/>
  </g>
  <g id="_x23_36b33cef">
    <path class="st5" d="M114.2,91.2c2.3-1.3,2.3,4.6,0,3.8,0-1.2,0-2.5,0-3.8Z"/>
  </g>
  <g id="_x23_773c06ff">
    <path class="st94" d="M208.6,91.5c2.4-.2,4.8-.3,7.2-.4-.2,1.1-.4,2.3-.5,3.4,1.9,0,3.9,0,5.8,0-.3.8-.8,2.4-1,3.2-1.8.1-3.6,0-5.5,0-1.1,3.1-1.9,6.3-2.2,9.6,2.3,0,4.6,0,6.9.1.1-.6.4-1.9.5-2.6,0,.6,0,1.8,0,2.4-.7,1.1-1.4,2.3-2.1,3.4-3.5,0-7.1.3-10.6-.4-4.3-2.7-.7-8.5-.3-12.3-.8-.1-2.5-.4-3.3-.6.3-.7,1-2.2,1.3-2.9.7,0,2,.1,2.6.2.4-1,.8-2,1.2-3.1Z"/>
  </g>
  <g id="_x23_38d73fff">
    <path class="st86" d="M81.6,95.4h.5c0-.1.5,0,.5,0-.2,1.3.4,4-1.3,4.4-1.2-1.1-.3-3.2.4-4.4Z"/>
  </g>
  <g id="_x23_020e0219">
    <path class="st64" d="M106.5,100.1c.7-2,1-4.6,3.5-5.1.1,1.7.3,3.5.5,5.2-1,0-3,0-3.9-.1Z"/>
  </g>
  <g id="_x23_773b06ff">
    <path class="st104" d="M145.5,110.6c1.8-5.3,3.1-10.7,4.1-16.2,6.5.4,13-.3,19.4.4,3.7,0,9.8-2,11.4,2.7.3,4.5-1.9,8.7-2.2,13.2-2.7,0-5.5,0-8.2,0,1.4-4.1,2.3-8.2,3.4-12.4-1.5-.2-3.1-.5-4.6-.7-1.1,4.3-2.4,8.6-2.8,13-2.7,0-5.4.1-8.1,0,1.2-4.3,2.5-8.6,3-13-1.4,0-2.7,0-4.1.2-1.9,4-2.5,8.4-2.9,12.8-2.8,0-5.6,0-8.5,0Z"/>
  </g>
  <g id="_x23_783b05ff">
    <path class="st99" d="M184.5,95.4c4.7-1.3,9.7-1,14.5-.8,2.8-.2,5.2,2.8,4.1,5.5-1.1,3.4-.8,8-4.1,10.2-4.6.8-9.4.4-14,.3-2.3.2-4-2.4-3.5-4.4.6-3.7,1.6-7.3,3-10.7M190.8,98.6c-1.1,2.8-1.6,5.7-2,8.6,1.6,0,3.4.6,4.9-.2,1.1-2.9,1.6-6.1,2.2-9.1-1.7.2-4-.9-5.1.7Z"/>
    <path class="st99" d="M222.6,95.6c3.1-1.8,6.9-.9,10.4-1.2,3,0,7.5-.4,8.2,3.5-.3,3.4-1.2,6.8-2.2,10-.5,2.2-3.1,2.7-5,2.7-4.3,0-8.7.3-12.9-.4-.3-.8-.9-2.3-1.2-3.1,0-.6,0-1.8,0-2.4.6-3.1,1-6.5,2.9-9.2M228.7,98.5c-1,2.8-1.4,5.8-2.1,8.7,1.6,0,3.2.2,4.7.3,1.2-3.2,1.9-6.5,2.4-9.8-1.6.4-3.8-.6-5.1.9Z"/>
  </g>
  <g id="_x23_773b07ff">
    <path class="st101" d="M244.6,95.7c4.8-2.5,10.5-.7,15.7-1.2,0,.8-.2,2.6-.2,3.4-2.4-.1-4.8-.3-7.2-.2-1.6-.4-2.3,1.1-2.6,2.4-.7,2.3-1.1,4.8-1.4,7.2,3,0,6,0,9,.1-.3.7-.9,2.2-1.2,2.9-3.8.9-7.8.4-11.6.3-2.2,0-4.2-2.2-3.6-4.4.8-3.5,1.2-7.4,3.2-10.4Z"/>
  </g>
  <g id="_x23_773c05ff">
    <path class="st100" d="M262.3,94.5c2.4,0,5-.4,7.2.9,2.3-.7,4.7-1,7.1-1.1-.5,1.7-1.1,3.4-1.6,5-1.9,0-3.9-.1-5.8-.1-1.2,3.7-2.1,7.5-2.4,11.4-2.8,0-5.6,0-8.4.1,1.9-5.2,3.1-10.7,3.9-16.2Z"/>
  </g>
  <g id="_x23_763c06ff">
    <path class="st98" d="M276.7,94.3c0,.8,0,2.2,0,3,3.8-4.4,10.2-2.4,15.3-2.8,3.1-.4,5.6,2.4,4.6,5.4-.9,3.4-.8,7.8-3.7,10.2-5.2,1.2-10.8.3-16.1.4-3.2-3.1-1.1-7.3-.2-10.8-.4,0-1.2-.2-1.6-.3.5-1.7,1-3.4,1.6-5M284.7,97.7c-.9,3.2-1.7,6.3-2.3,9.6,1.6,0,3.3,0,4.9,0,.9-3.1,1.7-6.3,2.2-9.5-1.6,0-3.2,0-4.8,0Z"/>
  </g>
  <g id="_x23_783c06ff">
    <path class="st90" d="M297.7,103c.4-3,.6-7.6,4.3-8.3,5-.5,10.1-.1,15.1-.2,0,.9,0,2.7,0,3.6-3.8-.3-7.9-1.1-11.6.4,3.3.9,8.5-1.3,10.2,2.7,0,3.2-.4,7.6-3.7,9.1-5.3.7-10.6.3-16,.2.1-.8.3-2.5.4-3.4,3.9,0,8.2,1.2,11.8-.8-3.4-1.3-9.3,1.3-10.5-3.3Z"/>
  </g>
  <g id="_x23_763b06ff">
    <path class="st95" d="M317.7,99.8c.5-1.9,1-4.5,3.4-5,5.1-.7,10.3-.2,15.5-.3,0,.9-.1,2.7-.2,3.6-3.9-.4-7.9-.9-11.6.3,3.5,1,9.4-1.2,10.6,3.5-.5,3-.7,7.6-4.4,8.5-5.1.6-10.2.2-15.4.2.1-.8.4-2.5.5-3.3,3.7-.4,8.4,1.6,11.3-1.3-2.9-.3-5.9.2-8.7-.6-1.9-1.2-1.3-3.8-1-5.6Z"/>
  </g>
  <g id="_x23_1f591fba">
    <path class="st65" d="M112.8,97.4c.3-.3.8-1,1.1-1.3l.8.3c-.2.4-.5,1.3-.6,1.7l-.7-.2-.6-.5Z"/>
  </g>
  <g id="_x23_02070210">
    <path class="st31" d="M111,101.2c.5-1.3,1.1-2.6,1.8-3.9l.6.5.7.2.8.2c-.7,1.4-1.3,2.7-2,4.1-.3,0-1-.3-1.4-.4l-.5-.7Z"/>
  </g>
  <g id="_x23_1f9c22e0">
    <path class="st14" d="M105.5,99.5c.2.8.4,1.5.6,2.3-.4,2.9-2.3,5.3-4.2,7.5.1,3.1,2,7.1-1.6,8.8,2.1-3.6,1.3-7.8-.6-11.3,3.4.5,4.1-3.2,4.9-5.6-1.8.7-2.5,3.5-4.4,3.6-.2-.4-.6-1.1-.7-1.4-.8-.1-2.3-.3-3-.4,1.2-.4,2.5-.9,3.7-1.3l.6-.2c1.6-.7,3.1-1.3,4.7-1.9Z"/>
  </g>
  <g id="_x23_219f23da">
    <path class="st77" d="M114,102.7c0-1.9,1.1-3.5,2.5-4.7,1,1.5,1.7,3.1,2.2,4.8l-.9-.5c-.6-.4-1.2-.7-1.8-1.1,0,1.2,0,2.4,0,3.7-1.2-.7-2.4-1.3-3.6-2,.3,1.4.7,2.9,1,4.3-.5,0-1.6-.2-2.2-.2l-.3-2c-.4-1-.9-1.9-1.4-2.9-1-.7-2-1.4-3-2,1,0,3,0,3.9.1.2.2.5.7.6,1l.5.7c.3,0,1,.3,1.4.4.3,0,.9.2,1.1.3Z"/>
  </g>
  <g id="_x23_2fa632ea">
    <path class="st46" d="M82.2,101.2c1.2-.2,1.7.7,1.5,2.4,2.9-.2,5.3,1.2,7.9,2.2.3.8.6,1.7.8,2.6-.9-.4-2.6-1.1-3.5-1.5-.3-.2-1-.7-1.3-.9-1.3,0-2.5,0-3.8,0,1.9.5,3.7.9,5.6,1.3-.7.8-2.1,2.3-2.8,3.1-.8-.3-1.6-.7-2.4-1-1.2.5-2.4,1.1-3.6,1.5-.5,0-1.4-.2-1.8-.3.3-.2.8-.5,1.1-.6-.5-.8-1.4-2.4-1.9-3.2,1.5.4,2.9.8,4.4,1.1,0-2.2-.8-4.4-.2-6.6Z"/>
  </g>
  <g id="_x23_2b7d32b4">
    <path class="st15" d="M90.4,102.9c3.2-1,6.5-1.5,9.8-1.2-1.2.4-2.5.8-3.7,1.3-1.4.5-2.9,1.1-4.3,1.7-.6-.6-1.2-1.1-1.8-1.7Z"/>
  </g>
  <g id="_x23_074b0984">
    <path class="st39" d="M116,101.2c.6.4,1.2.7,1.8,1.1-1.3,2.6,1.6,5,1.2,7.7-.5-1.2-.9-2.4-1.4-3.7-.4-.4-1.2-1.1-1.6-1.5,0-1.2,0-2.4,0-3.7Z"/>
  </g>
  <g id="_x23_47ae52fc">
    <path class="st84" d="M79.2,105.7c-.9-.8-1.1-3.2.4-3.2.6.7,1.1,3.5-.4,3.2Z"/>
  </g>
  <g id="_x23_05f906ff">
    <path class="st92" d="M112.4,102.9c1.2.6,2.4,1.3,3.6,2,.4.4,1.2,1.1,1.6,1.5.4,1.2.9,2.4,1.4,3.7.9,2.1,1.2,4.3,1.5,6.6.8.7,1.7,1.5,2.5,2.2-.8,1.5-1.7,3-2.5,4.5-.4-.3-1.4-.8-1.8-1.1-.8-1.4-1.4-2.8-2-4.2,0-.5.2-1.5.3-2-.5,0-1.4.2-1.9.3-.3-1.8-.5-3.5-1.1-5.2-.2-1.3-.4-2.6-.6-3.9-.3-1.4-.7-2.9-1-4.3Z"/>
  </g>
  <g id="_x23_308b35d5">
    <path class="st52" d="M108.4,111c.8-2,1.5-4,2.4-6l.3,2c.2,1.2.4,2.3.7,3.5,0,.3.3,1,.3,1.4.7,1.3,1.5,2.7,2.2,4-1.3-1-2.6-2-3.9-3.1-1.7,0-3.4,0-5.1-.2.4.4,1.3,1.3,1.7,1.8,2.5.4,4.9,1,6.8,2.7.8,1,1.5,2.1,2.3,3.2,2,4.4,1.4,10.7,6.4,13.1,2.2,1.7,4.4-.5,5.6-2.3.3-.8.5-1.7.6-2.5,1-6.9-1.5-13.8-5.8-19.2v-1.8c6.7,5.6,8.6,15,6.8,23.2-.6,2.1-1.9,4.4-4.3,4.6-3.6.8-6.4-2.4-8.5-4.8-.9.9-1.8,1.9-2.6,2.8-2.5-2.1,2.6-3.9,2.2-6.3-.9-4.4-2.9-9.5-7.6-11.1l-.3,2.3c0,.2-.2.7-.2,1-1.7-2.1-3.2-4.4-4.7-6.7.1-.8.3-2.4.4-3.2,1.4.5,2.8.9,4.2,1.4Z"/>
  </g>
  <g id="_x23_045106a9">
    <path class="st7" d="M111.2,107c.5,0,1.6.2,2.2.2.2,1.3.4,2.6.6,3.9-.6-1.4-1.3-2.7-2-4.1,0,.9,0,2.6,0,3.4-.3-1.2-.5-2.3-.7-3.5Z"/>
  </g>
  <g id="_x23_08350a9f">
    <path class="st75" d="M123.1,108.6c-2,1.5-1.5-2.9,0-.9v.9Z"/>
  </g>
  <g id="_x23_269928d2">
    <path class="st37" d="M89.8,108.4c1.8,2.2,3.7,5.3,1.5,7.9-.9-2.6-1.5-5.2-1.5-7.9Z"/>
  </g>
  <g id="_x23_2a4c2a90">
    <path class="st40" d="M80.6,110.7c.5,3.4-5.3,1.1-1.8-.3.5,0,1.4.2,1.8.3Z"/>
  </g>
  <g id="_x23_107c16ce">
    <path class="st45" d="M115.1,116.3c.5,0,1.4-.2,1.9-.3,0,.5-.2,1.5-.3,2-.1.6-.4,1.8-.5,2.4-.7-1.1-1.5-2.2-2.3-3.2.3-.2.9-.6,1.2-.8Z"/>
  </g>
  <g id="_x23_0a370fbc">
    <path class="st51" d="M108.7,118.4c1.5,0,2.7,2.1,2.1,3.5-1.1.5-2.1-1-2.3-1.9v-.6c0-.2.2-.7.2-1Z"/>
  </g>
  <g id="_x23_2c7d2fbe">
    <path class="st41" d="M101.3,118.5l1.2-.5c1.3,3.3,3.1,7.4,1.4,10.8-1.5,1-3.6,3.6-5.3,1.7-1.7-2.8-2.3-6.2-3.2-9.3.3-.3,1-.8,1.3-1.1,1,3.2,2.1,6.4,3.3,9.6.9-1,2-1.9,2.8-2.9.2-2.8-.9-5.5-1.5-8.2Z"/>
  </g>
  <g id="_x23_3bc33cf8">
    <path class="st4" d="M123,118.8v.6c-.3,1.2-.4,2.7.5,3.6.4.4,1.3,1.3,1.7,1.8,1.2.9,2.2-1.4,2.9-2.1,0,1-.2,3.1-.2,4.1-.5-.1-1.5-.4-2-.6-.4-.1-1.1-.3-1.4-.5-1.3-.8-2.6-1.6-3.9-2.4.8-1.5,1.7-3,2.5-4.5Z"/>
  </g>
  <g id="_x23_0353039c">
    <path class="st13" d="M122.9,119.4c1.7-.1,1.8,2.8.6,3.6-1-.9-.8-2.4-.6-3.6Z"/>
  </g>
  <g id="_x23_338838cd">
    <path class="st16" d="M92.5,120.7l1-.6c1.6,3.9,2.7,7.9,3.2,12.1-3.7-2.4-3-7.7-4.2-11.5Z"/>
  </g>
  <g id="_x23_53b550ff">
    <path class="st105" d="M99.1,122.7c-.4-1.6,0-1.9,1.3-1-.3.3-1,.8-1.3,1Z"/>
  </g>
  <g id="_x23_115a19ac">
    <path class="st35" d="M125.2,124.8c-.8-1.9,2.8-5.6,2.9-2.1-.7.7-1.7,3-2.9,2.1Z"/>
  </g>
  <g id="_x23_1538149e">
    <path class="st82" d="M100.4,121.7c2.3,1-1.7,3.8-1.3,1,.3-.2,1-.8,1.3-1Z"/>
  </g>
  <g id="_x23_134c1695">
    <path class="st53" d="M125.9,126.2c.5.2,1.5.5,2,.6.2.5.7,1.5,1,1.9-.1.8-.4,1.7-.6,2.5-.2-.4-.5-1.1-.7-1.5-.3-.6-.9-1.8-1.1-2.4-.1-.3-.4-.9-.5-1.2Z"/>
  </g>
  <g id="_x23_357e38be">
    <path class="st66" d="M119.7,126.9c1.8,1,3.7,2,5.6,2.9.3-.6.8-1.8,1.1-2.5.3.6.9,1.8,1.1,2.4-2.3,4.7-6.6.2-7.9-2.8Z"/>
  </g>
  <g id="_x23_2f7f32bb">
    <path class="st10" d="M101.4,133.2c1.5.4,2.9.9,4,1.9h-1.6c-.4,0-1.3,0-1.8,0,.5.2,1.4.5,1.9.7.5,0,1.6.2,2.1.3-1,.9-2.2,1.7-3.6,1.9-.3,0-1-.1-1.4-.2-.6-.1-1.8-.4-2.4-.5.9-1.4,1.8-2.8,2.8-4.1Z"/>
  </g>
  <g id="_x23_133f1648">
    <path class="st17" d="M102.1,135.1c.4,0,1.3-.1,1.8-.2v.9c-.3-.2-1.3-.6-1.8-.7Z"/>
  </g>
  <g id="_x23_1d311ecf">
    <path class="st48" d="M101.1,137.8c.3,0,1,.1,1.4.2,1.6.4,4.2,0,4.8,2,1.1,4.8,2.2,9.7,2.6,14.7l-.6-1.1c0-.2-.3-.6-.4-.7-.8-1.6-1.7-3.2-2.5-4.9.1-.8.2-1.5.4-2.3-.6-.1-1.7-.4-2.2-.5l-1-.2c.4-.4,1.3-1,1.7-1.4,2.4-.1.5-3-.4-.7-1.5,0-2.5.7-3.2,2-1.3-2-3.3-3.4-5.3-4.8-.2-.1-.5-.4-.7-.5,1.9-.4,3.8-.9,5.5-1.7M101.3,139.4q.5.5,0,0M102.3,141.9c1,.8,2.9-.5,2.3-1.7-1-.8-2.9.5-2.3,1.7Z"/>
  </g>
  <g id="_x23_444444ff">
    <path class="st93" d="M20.8,139.1c3,0,6,0,9,0,3.4,11.7,6.7,23.4,9.9,35.2-2.9,0-5.8,0-8.6,0-.6-1.8-.7-3.9-1.8-5.4-2.8-.2-5.5-.2-8.3,0-.6,1.7-.9,3.5-1.3,5.3-2.9,0-5.7,0-8.5,0,2.9-11.8,6.5-23.5,9.8-35.2M22.9,160.7c1.7,0,3.4,0,5,0-1-3.6-1.8-7.3-2.6-10.9-1.3,3.5-2,7.2-2.5,11Z"/>
    <path class="st93" d="M43.6,143.6c3.6-5.4,11.6-6.5,17-3.2,3.2,2.1,4.4,5.9,5.5,9.4-2.4.7-4.9,1.4-7.4,2.1-1-1.9-2-4.9-4.8-4.7-2.4-.3-4,1.9-4.5,4-.8,3.9-.8,8,0,11.9.6,2.4,3.4,4.6,5.8,3.3,2.5-1.1,2.7-4.2,3.6-6.4,2.5,1,5,1.9,7.5,2.9-1.2,3.9-2.3,8.3-6,10.6-4.1,2.4-9.6,2.2-13.7-.2-4.4-3.2-6-8.9-6.4-14.1-.3-5.3.2-10.9,3.2-15.4Z"/>
    <path class="st93" d="M75.3,139.5c4.2-1.5,9.3-1.4,12.9,1.4,2.5,2,2.9,5.4,3.6,8.4-2.6.2-5.3.4-7.9.6-.9-1.8-1.2-4.7-3.8-4.4-2.2-.7-4.1,3.2-1.7,4.2,4.2,2,9.6,2.5,12.4,6.6,3.4,5.6,2,14.3-4,17.5-4.1,1.9-9.2,1.7-13.2-.3-3.7-2.3-4.7-7-5.3-11,2.7-.2,5.4-.3,8-.4.6,2.4,1.6,6,4.8,5.7,2.9,0,4.2-4.1,2.1-5.9-3.1-2.1-7.2-2.3-10.2-4.7-5.8-4.4-4.6-15.1,2.3-17.7Z"/>
    <path class="st93" d="M115,139.1c3.6,0,7.3,0,10.9,0,0,11.7,0,23.4,0,35.1-2.3,0-4.7,0-7,0,0-7.6.2-15.1-.2-22.7-1.5,5.9-2.1,12.1-3.6,18-1.5-2.1-3-4.3-4.2-6.7,0-2.7.5-5.3,1.1-7.9,1.2-5.3,2.1-10.6,3.1-15.8Z"/>
    <path class="st93" d="M145.4,143.4c4.3-6.2,15.1-6.8,19.5-.4,1.5,2,2.1,4.4,2.8,6.8-2.4.6-4.7,1.3-7,2.1-1.3-1.7-2-4.7-4.6-4.8-2.5-.5-4.3,1.7-4.8,3.9-.9,4.1-.9,8.4.2,12.4.6,2.4,3.6,4,5.8,2.7,2.3-1.2,2.6-4.1,3.4-6.3,2.5.9,4.9,1.8,7.4,2.7-.8,4.4-2.5,9.4-7,11.4-4.7,2-10.8,1.3-14.4-2.6-3-3.4-4.3-8-4.4-12.5-.2-5.3,0-11.1,3.3-15.6Z"/>
    <path class="st93" d="M171.6,139.1c2.7,0,5.4,0,8.1,0,0,4.1,0,8.1.1,12.2,2.8,0,5.6,0,8.5,0,0-4.1,0-8.1,0-12.2,2.8,0,5.6,0,8.4,0,.3,11.7,0,23.4.1,35.1-2.8,0-5.7,0-8.5,0,0-4.6,0-9.2,0-13.9-2.8-.1-5.7-.1-8.5-.2,0,4.7,0,9.4-.1,14-2.7,0-5.4,0-8.2,0-.1-11.7-.2-23.5,0-35.2Z"/>
    <path class="st93" d="M209.1,139.2c3,0,6,0,9.1,0,3.4,11.7,6.7,23.4,9.9,35.1-2.9,0-5.9,0-8.8,0-.4-1.8-.8-3.7-1.2-5.5-3,0-6,0-8.9,0-.4,1.9-.8,3.7-1.1,5.6-2.9,0-5.8,0-8.7,0,3.2-11.8,6.6-23.4,9.9-35.1M213.5,149.7c-.9,3.7-1.6,7.4-2.4,11,1.7,0,3.4,0,5.1,0-.7-3.7-1.5-7.4-2.6-11Z"/>
    <path class="st93" d="M223.2,139.2c2.9,0,5.9,0,8.8,0,1.9,8,3.8,16,5.6,24,2.3-7.9,3.8-16,5.8-24,2.8,0,5.7,0,8.5,0-3.2,11.8-6.4,23.6-9.8,35.3-3.1,0-6.1,0-9.1-.1-3.2-11.8-6.7-23.4-9.9-35.2Z"/>
    <path class="st93" d="M257.6,139.2c3.1,0,6.1,0,9.2,0,3.4,11.7,6.6,23.4,9.9,35.1-2.9,0-5.9,0-8.8,0-.4-1.8-.8-3.7-1.1-5.5-2.9,0-5.9-.3-8.8,0-.7,1.8-1.1,3.6-1.6,5.5-2.8,0-5.6,0-8.5,0,3.1-11.7,6.7-23.3,9.7-35M259.5,160.7c1.7,0,3.5,0,5.2,0-.8-3.6-1.6-7.3-2.6-10.9-1,3.6-1.8,7.2-2.6,10.8Z"/>
    <path class="st93" d="M280.7,143.7c3.6-5.5,11.2-6.1,17-4.2,3.8,1.5,5.3,5.6,6.4,9.2-2.6.7-5.3,1.3-8,1.9-1.2-1.8-2.5-4.6-5.2-4-3.7.2-4.9,4.3-5.2,7.3-.3,3.8-.3,8,2,11.2,2.2,3,6.4,1.5,9-.2,0-.8,0-2.4,0-3.2-1.8,0-3.5,0-5.3,0,0-2.5,0-5.1,0-7.6,4.3,0,8.6,0,12.9,0,0,5,0,10.1,0,15.1-4.5,4.4-11.1,7-17.4,5.1-5.2-1.2-8.1-6.6-9.1-11.5-1.3-6.5-.9-13.7,2.9-19.4Z"/>
    <path class="st93" d="M326.2,139.2c2.6,0,5.3,0,7.9,0,.1,11.7,0,23.4.1,35.1-2.6,0-5.3.3-7.9-.2-3.6-5.5-5.8-11.8-9.4-17.3-.3,5.9,0,11.8-.2,17.6-2.6,0-5.2,0-7.8,0,0-11.7,0-23.4,0-35.1,2.7,0,5.3,0,8,.2,2.8,6.1,6,12,9.1,18,.4-6.1,0-12.1.2-18.2Z"/>
    <path class="st93" d="M339.1,139.2c7.4,0,14.7,0,22.1,0,0,2.7,0,5.4,0,8.1-4.6,0-9.1,0-13.7,0,0,1.6,0,3.1,0,4.7,4.1.2,8.3.2,12.4,0,0,2.6,0,5.2,0,7.8-4.1,0-8.2,0-12.3,0,0,2.1,0,4.3,0,6.5,4.7,0,9.4,0,14,0,0,2.7,0,5.3,0,8-7.5.2-15.1,0-22.7,0,0-11.7,0-23.4,0-35.1Z"/>
    <path class="st93" d="M368.8,140.8c3.5-2.4,8.2-2.7,12.2-1.5,4.1,1.2,6.6,5.8,6.2,9.9-2.5.5-5,.6-7.5.7-.7-2.1-1.9-5.2-4.8-4.3-1.8,0-2.2,2.6-1.4,3.8,4.4,2.3,10.2,2.5,13.1,7,3.6,6.2,1.4,16.3-6.2,18.2-4.2.9-9.4.8-12.7-2.4-2.5-2.6-3.2-6.2-3.6-9.7,2.3-.2,4.7-.5,7-.6,2,1.5,1.9,5.4,4.9,5.8,2.2.5,4.1-1.5,4.1-3.6-1-3.9-5.9-3.7-8.9-5.5-7.1-2.6-8.1-13.2-2.5-17.9Z"/>
  </g>
  <g id="_x23_0e1a105a">
    <path class="st30" d="M101.3,139.4q.5.5,0,0Z"/>
  </g>
  <g id="_x23_65ba62fa">
    <path class="st24" d="M102.3,141.9c-.7-1.2,1.3-2.5,2.3-1.7.7,1.2-1.3,2.5-2.3,1.7Z"/>
  </g>
  <g id="_x23_343534ee">
    <path class="st72" d="M96.2,140c1.9,1.4,3.9,2.8,5.3,4.8l.2.4c-.6,3.1,0,6.3.4,9.4,1.4.3,2.8.6,4.2.9-1.1,0-2.3,0-3.4,0,.3,6.2,0,12.5,0,18.8-2.3,0-4.7,0-7,0,.1-11.4-.3-22.9.3-34.3M96.8,157c0,5.4-.2,10.8,0,16.1,1.7,0,3.4,0,5.1,0,.2-4.9.3-9.9,0-14.8-4.6-3.5-3.7-9.5-4.5-14.6-1.3,4.3-.6,8.8-.7,13.2Z"/>
  </g>
  <g id="_x23_1a291967">
    <path class="st32" d="M104.7,142.8c1-2.3,2.8.6.4.7l-.4-.7Z"/>
  </g>
  <g id="_x23_528751d8">
    <path class="st28" d="M101.5,144.8c.7-1.3,1.8-2,3.2-2l.4.7c-.4.3-1.3,1-1.7,1.4-.4,0-1.3.2-1.8.2l-.2-.4Z"/>
  </g>
  <g id="_x23_474346ff">
    <path class="st93" d="M96.8,157c0-4.4-.6-8.9.7-13.2.8,5.1,0,11,4.5,14.6.3,4.9.2,9.9,0,14.8-1.7,0-3.4,0-5.1,0-.3-5.4-.2-10.8,0-16.1Z"/>
  </g>
  <g id="_x23_1a481bd2">
    <path class="st33" d="M102.1,154.7c-.5-3.1-1-6.3-.4-9.4,0,1.1.2,2,.8,2.8.3.3.9.9,1.2,1.2.7-.3,2-1,2.7-1.3.8,1.6,1.7,3.2,2.5,4.9-.8.9-1.7,1.8-2.5,2.7-1.4-.3-2.8-.6-4.2-.9M103.2,153.1c-.4,1.7,3.1,1.5,2.4-.2l1.2.2c0-.8.2-2.5.2-3.4-1.5.9-4.3.9-3.9,3.4Z"/>
  </g>
  <g id="_x23_146714d4">
    <path class="st78" d="M101.7,145.2c.4,0,1.3-.2,1.8-.2l1,.2c.9,1.3-.8,2.6-2,2.9-.6-.8-.9-1.7-.8-2.8Z"/>
  </g>
  <g id="_x23_459d47e4">
    <path class="st70" d="M104.5,145.2c.6.1,1.7.4,2.2.5-.1.8-.3,1.5-.4,2.3-.7.3-2,1-2.7,1.3-.3-.3-.9-.9-1.2-1.2,1.2-.2,2.9-1.5,2-2.9Z"/>
  </g>
  <g id="_x23_4fb84af4">
    <path class="st38" d="M103.2,153.1c-.5-2.4,2.3-2.5,3.9-3.4,0,.9-.2,2.5-.2,3.4l-1.2-.2c-.6,0-1.8.1-2.4.2Z"/>
  </g>
  <g id="_x23_1a591e94">
    <path class="st18" d="M103.2,153.1c.6,0,1.8-.1,2.4-.2.7,1.7-2.8,1.9-2.4.2Z"/>
  </g>
  <g id="_x23_428140d2">
    <path class="st19" d="M109.3,153.6l.6,1.1v.5c.3,1,.7,2.9.9,3.9-.3.2-1,.6-1.4.8-2.1,0-4.1.2-6.2.3.8-1.9,2.9-2,4.6-2.6.5-1.3,1-2.6,1.4-3.9Z"/>
  </g>
  <g id="_x23_416b3fc5">
    <path class="st23" d="M106.1,163.2c-2.1-1,1.7-3,2.9-2.9,1,1.9-1.3,3.1-2.9,2.9Z"/>
  </g>
  <g id="_x23_2b372be8">
    <path class="st80" d="M108.9,164.7c.6-.6,1.3-1.2,1.9-1.9,1.2,2.3,2.7,4.5,4.2,6.7-.2,1.6-.5,3.2-.8,4.8-1.8-.1-3.6-.2-5.3-.3,2.1-.9,4.2-2,4.2-4.6h0c0-.1-.7-.9-.7-.9-.4-.4-1.1-1.2-1.5-1.6-.4-.4-1.1-1.3-1.5-1.7l-.5-.6Z"/>
  </g>
  <g id="_x23_55be5fff">
    <path class="st87" d="M106.8,166.1c.5-.3,1.6-1,2.1-1.3l.5.6c-.6,1.2-1.4,1.4-2.7.7Z"/>
  </g>
  <g id="_x23_569e55ef">
    <path class="st2" d="M106.9,168.2c1.3-.6,2.7-.9,4.1-1.2.6,2-3.4,2.8-4.1,1.2Z"/>
  </g>
  <g id="_x23_3d5b3ccf">
    <path class="st21" d="M106.5,169.7c2,0,4-.4,5.9-1.1l.7.8h0c-1.8,1.4-3.7,2.8-5.1,4.5-.5-1.4-1-2.8-1.5-4.2Z"/>
  </g>
  <g id="_x23_0b0f0a57">
    <path class="st6" d="M108,173.9c1.5-1.7,3.3-3.1,5.1-4.4,0,2.6-2.1,3.6-4.2,4.6,1.8,0,3.6.2,5.3.3-2.3.2-4.7.3-7,.3.2-.2.5-.6.7-.8Z"/>
  </g>
</svg>